<svg width="101.88" height="115.49" viewBox="0 0 101.88 115.49" xmlns="http://www.w3.org/2000/svg" xmlns:xlink="http://www.w3.org/1999/xlink" overflow="visible"><defs></defs><path d="M9.69 115.49 9.69 114.64 9.69 115.49C5.96 115.49 2.53 113.31 0.94 109.94-0.16 107.6-0.29 104.97 0.58 102.54 1.45 100.11 3.22 98.16 5.56 97.06L32.17 81.34 32.17 68.9 20.03 68.9C16.51 68.9 13.18 67.35 10.91 64.66 6.67 59.63 7.31 52.09 12.34 47.84L19.03 42.2 28.96 33.84C31.45 31.75 34.55 30.47 37.78 30.17 35.76 27.93 34.61 24.98 34.6 21.95L34.6 16.35C34.62 12.05 36.29 7.99 39.3 4.92 42.31 1.85 46.33 0.1 50.63 0L50.91 0C55.18 0 59.19 1.66 62.21 4.68 65.42 7.83 67.27 12.22 67.29 16.72L67.29 21.95C67.28 24.98 66.13 27.93 64.11 30.18 67.34 30.48 70.44 31.76 72.93 33.85L82.86 42.21 89.55 47.86C92.25 50.13 93.79 53.46 93.79 56.99 93.79 63.57 88.43 68.92 81.86 68.92L69.72 68.92 69.72 81.36 96.38 97.1C99.7 98.66 101.88 102.1 101.88 105.83 101.88 111.17 97.54 115.51 92.2 115.51L9.69 115.51ZM74.57 111.56C75.27 111.56 75.85 110.99 75.85 110.28L75.85 102.99C75.85 102.86 75.83 102.74 75.8 102.62 75.64 102.08 75.14 101.71 74.58 101.71 74.46 101.71 74.33 101.73 74.21 101.76L64.83 104.57 64.83 111.55 74.57 111.56ZM92.2 111.55C94.43 111.55 96.48 110.24 97.41 108.21 98.73 105.34 97.47 101.92 94.6 100.6 94.54 100.57 94.48 100.54 94.42 100.51L67.21 84.44 34.67 84.44 7.46 100.51C7.4 100.54 7.34 100.58 7.28 100.61 5.26 101.54 3.95 103.59 3.95 105.82 3.95 108.98 6.53 111.56 9.69 111.56L60.89 111.56 60.89 104.83 27.09 99.96C26.57 99.88 26.11 99.61 25.79 99.19 25.47 98.77 25.34 98.25 25.42 97.73 25.56 96.77 26.4 96.04 27.37 96.04 27.46 96.04 27.56 96.05 27.65 96.06L62.71 101.11 73.08 98C73.57 97.85 74.07 97.78 74.58 97.78 75.97 97.78 77.28 98.32 78.27 99.31 79.26 100.3 79.8 101.61 79.8 103L79.8 110.29C79.8 110.73 79.74 111.15 79.63 111.57L92.2 111.57ZM65.78 80.5 65.78 68.9 36.1 68.9 36.1 80.5 65.78 80.5ZM81.85 64.96C86.25 64.96 89.84 61.37 89.84 56.97 89.84 54.61 88.8 52.38 87 50.86L81.62 46.32 76.52 50.92 80.96 54.67C81.41 55.04 81.66 55.59 81.66 56.18 81.66 57.27 80.78 58.15 79.69 58.15L57.21 58.15C56.13 58.15 55.24 57.27 55.24 56.19L55.24 55.92C55.24 54.3 54.32 52.83 52.91 52.1L52.91 64.97 81.85 64.97ZM12.05 57.37C12.27 61.62 15.77 64.95 20.03 64.96L48.97 64.96 48.97 52.09C47.56 52.82 46.64 54.29 46.64 55.91L46.64 56.18C46.64 57.27 45.76 58.15 44.67 58.15L22.19 58.15C21.61 58.15 21.05 57.89 20.68 57.45 19.98 56.62 20.09 55.37 20.92 54.67L25.36 50.92 20.26 46.32 14.88 50.85C13.07 52.37 12.04 54.6 12.04 56.96L12.04 57.18 12.05 57.37ZM74.3 54.21 69.72 50.35 69.72 54.21 74.3 54.21ZM65.78 54.21 65.78 46.11C65.78 45.65 65.95 45.2 66.24 44.84 66.61 44.39 67.16 44.14 67.75 44.14 68.21 44.14 68.67 44.31 69.02 44.6L73.48 48.36 78.58 43.76 70.38 36.85C68.24 35.05 65.53 34.05 62.74 34.03 61.58 38.5 56.68 41.72 50.94 41.72 45.2 41.72 40.3 38.51 39.14 34.03 36.35 34.05 33.64 35.05 31.5 36.85L23.31 43.75 28.41 48.35 32.87 44.59C33.22 44.29 33.67 44.13 34.14 44.13 35.23 44.13 36.11 45.01 36.11 46.1L36.11 54.2 42.88 54.2C43.58 50.9 46.23 48.34 49.57 47.78 50.03 47.7 50.49 47.66 50.95 47.66 54.87 47.66 58.2 50.39 59.01 54.2L65.78 54.2ZM32.16 54.21 32.16 50.35 27.58 54.21 32.16 54.21ZM43.34 34.03C44.51 36.26 47.53 37.78 50.94 37.78 54.35 37.78 57.37 36.27 58.54 34.03L57.11 34.03C56.19 34.03 55.38 33.37 55.18 32.47 54.95 31.41 55.64 30.36 56.7 30.13 60.53 29.31 63.32 25.86 63.34 21.94L63.34 16.72C63.32 13.27 61.9 9.91 59.44 7.49 57.15 5.2 54.12 3.94 50.89 3.94L50.7 3.94C43.91 4.1 38.57 9.55 38.54 16.35L38.54 21.95C38.55 25.87 41.34 29.31 45.18 30.14 46.08 30.33 46.74 31.14 46.74 32.06 46.74 32.59 46.54 33.08 46.16 33.45 45.79 33.82 45.29 34.03 44.77 34.03L43.34 34.03Z" fill="#C01718"/><path d="M9.69 114.64C6.29 114.64 3.15 112.65 1.7 109.58 0.69 107.45 0.58 105.05 1.37 102.83 2.17 100.61 3.78 98.83 5.91 97.83L5.93 97.82 33.01 81.83 33.01 68.05 20.03 68.05C16.76 68.05 13.67 66.61 11.56 64.11 7.62 59.44 8.22 52.43 12.89 48.49L19.58 42.85 29.51 34.49C32.08 32.33 35.34 31.08 38.69 30.96L39.75 30.92 38.98 30.19C36.74 28.05 35.45 25.04 35.44 21.94L35.44 16.34C35.46 12.27 37.04 8.42 39.9 5.51 42.75 2.6 46.57 0.94 50.65 0.85 50.73 0.85 50.82 0.85 50.91 0.85 54.95 0.85 58.75 2.42 61.61 5.28 64.66 8.28 66.42 12.45 66.44 16.72L66.44 21.94C66.43 25.04 65.14 28.04 62.9 30.19L62.13 30.92 63.19 30.96C66.54 31.08 69.8 32.33 72.37 34.49L82.3 42.85 89 48.5C91.51 50.61 92.94 53.7 92.94 56.98 92.94 63.09 87.97 68.06 81.86 68.06L68.87 68.06 68.87 81.84 95.95 97.83 95.97 97.84C99.05 99.29 101.03 102.43 101.03 105.83 101.03 110.7 97.07 114.66 92.2 114.66 92.2 114.64 9.69 114.64 9.69 114.64ZM74.57 100.86C74.36 100.86 74.16 100.89 73.96 100.95L63.97 103.94 63.97 112.4 74.57 112.4C75.74 112.4 76.7 111.44 76.7 110.27L76.7 102.98C76.7 102.77 76.67 102.57 76.61 102.37 76.34 101.48 75.51 100.86 74.57 100.86ZM74.57 98.62C75.74 98.62 76.83 99.07 77.66 99.9 78.49 100.73 78.94 101.82 78.94 102.99L78.94 110.28C78.94 110.8 78.84 111.31 78.65 111.8L78.42 112.41 92.2 112.41C94.76 112.41 97.11 110.91 98.18 108.58 99.7 105.28 98.25 101.36 94.95 99.84 94.92 99.82 94.88 99.81 94.85 99.79L67.44 83.59 34.44 83.59 7.03 99.78C7 99.8 6.96 99.82 6.93 99.83 4.6 100.9 3.1 103.25 3.1 105.82 3.1 109.45 6.06 112.41 9.69 112.41L61.74 112.41 61.74 104.09 27.21 99.12C26.91 99.08 26.65 98.92 26.47 98.68 26.29 98.44 26.22 98.15 26.26 97.85 26.34 97.3 26.81 96.89 27.37 96.89 27.42 96.89 27.48 96.89 27.53 96.9L62.77 101.98 73.32 98.82C73.73 98.68 74.15 98.62 74.57 98.62ZM35.25 81.35 66.63 81.35 66.63 68.05 35.25 68.05 35.25 81.35ZM52.06 65.81 81.85 65.81C86.72 65.8 90.69 61.84 90.69 56.97 90.69 54.36 89.54 51.89 87.54 50.21L81.6 45.2 75.22 50.96 80.41 55.33C80.66 55.54 80.81 55.86 80.81 56.19 80.81 56.81 80.31 57.31 79.69 57.31L57.21 57.31C56.59 57.31 56.09 56.81 56.09 56.19L56.09 55.92C56.09 53.74 54.71 51.79 52.66 51.06L52.06 50.85 52.06 65.81ZM11.2 57.42C11.44 62.08 15.31 65.81 20.03 65.82L49.82 65.82 49.82 50.84 49.22 51.05C47.17 51.78 45.79 53.73 45.79 55.91L45.79 56.18C45.79 56.8 45.29 57.3 44.67 57.3L22.19 57.3C21.85 57.3 21.54 57.15 21.33 56.9 20.93 56.43 20.99 55.72 21.46 55.32L26.65 50.95 20.27 45.19 14.33 50.2C12.33 51.88 11.18 54.35 11.19 56.96L11.19 57.41 11.2 57.41ZM68.87 55.06 76.63 55.06 72.8 51.83 68.87 48.52 68.87 55.06ZM50.95 48.52C54.57 48.52 57.63 51.11 58.23 54.68L58.29 55.05 66.62 55.05 66.62 46.1C66.62 45.84 66.71 45.58 66.88 45.38 67.09 45.13 67.41 44.98 67.74 44.98 68 44.98 68.26 45.07 68.46 45.24L73.48 49.48 74.47 48.59 79.86 43.73 70.92 36.2C68.6 34.25 65.66 33.18 62.64 33.18L62.05 33.18 61.97 33.53C61.05 37.78 56.41 40.86 50.93 40.86 45.45 40.86 40.8 37.78 39.89 33.53L39.81 33.18 39.22 33.18C36.19 33.18 33.25 34.26 30.94 36.2L22 43.73 27.39 48.59 28.38 49.48 33.4 45.24C33.6 45.07 33.86 44.98 34.12 44.98 34.74 44.98 35.24 45.48 35.24 46.1L35.24 55.05 43.58 55.05 43.64 54.68C44.16 51.58 46.6 49.14 49.7 48.62 50.12 48.56 50.54 48.52 50.95 48.52ZM29.08 51.83 25.25 55.06 33.01 55.06 33.01 48.53 29.08 51.83ZM42.3 33.78C43.35 36.63 46.91 38.62 50.94 38.62 54.97 38.62 58.52 36.63 59.58 33.78L59.8 33.18 57.11 33.18C56.59 33.18 56.13 32.81 56.02 32.29 55.89 31.69 56.28 31.09 56.88 30.96 61.1 30.05 64.18 26.26 64.19 21.94L64.19 16.72C64.17 13.04 62.66 9.46 60.04 6.88 57.6 4.43 54.35 3.09 50.89 3.09 50.82 3.09 50.75 3.09 50.68 3.09 43.42 3.26 37.71 9.08 37.68 16.34L37.68 21.94C37.69 26.26 40.77 30.05 44.99 30.96 45.5 31.07 45.88 31.53 45.88 32.05 45.88 32.67 45.38 33.17 44.76 33.17L42.07 33.17 42.3 33.78Z" fill="#C01718"/></svg>