<svg width="114.27" height="114.28" viewBox="0 0 114.27 114.28" xmlns="http://www.w3.org/2000/svg" xmlns:xlink="http://www.w3.org/1999/xlink" overflow="visible"><defs></defs><g><path d="M39.64 51.66C38.55 51.66 37.66 50.77 37.66 49.68L37.66 43.27C37.66 35.82 43.55 33.48 44.22 33.23L51.46 30.4 51.46 29.64C49.53 28.48 48.08 26.68 47.36 24.56 44.68 24.31 42.59 22.04 42.59 19.34 42.59 17.78 43.28 16.32 44.47 15.32L44.47 12.25C44.47 5.49 49.96 0 56.71 0L57.56 0C64.31 0 69.8 5.49 69.8 12.24L69.8 15.33C70.98 16.33 71.66 17.79 71.66 19.34 71.66 22.01 69.6 24.28 66.95 24.56 66.23 26.68 64.77 28.48 62.84 29.64L62.84 30.42 69.89 33.25C70.54 33.48 76.43 35.85 76.43 43.28L76.43 49.68C76.43 50.78 75.54 51.67 74.45 51.67L49.93 51.67C48.84 51.67 47.95 50.78 47.95 49.69 47.95 48.6 48.84 47.71 49.93 47.71L72.49 47.71 72.49 43.28C72.49 38.43 68.73 37.03 68.57 36.98L61.86 34.29 58.57 37.71C58.21 38.09 57.7 38.31 57.17 38.32 56.63 38.32 56.13 38.12 55.76 37.76L52.27 34.36 45.64 36.96C45.4 37.05 41.63 38.44 41.63 43.29L41.63 47.72 44.22 47.72C45.31 47.72 46.2 48.61 46.2 49.7 46.2 50.79 45.31 51.68 44.22 51.68L39.64 51.68ZM57.09 33.52 58.89 31.65 58.89 30.95C58.58 30.98 58.27 31 57.97 31L56.34 31C56.04 31 55.73 30.98 55.42 30.95L55.42 31.89 57.09 33.52ZM50.81 21.5C50.81 24.55 53.29 27.04 56.35 27.04L57.98 27.04C61.03 27.04 63.52 24.56 63.52 21.5L63.52 16.48C62.2 15.83 61.09 14.78 60.21 13.34 57.06 15.87 53.06 16.69 50.82 16.95L50.82 21.5ZM46.83 18.54C46.65 18.77 46.55 19.05 46.55 19.34 46.55 19.64 46.66 19.93 46.84 20.16L46.84 18.54C46.84 18.54 46.83 18.54 46.83 18.54ZM67.47 20.08C67.62 19.87 67.71 19.61 67.71 19.34 67.71 19.07 67.63 18.82 67.47 18.6L67.47 20.08ZM56.71 3.96C52.14 3.96 48.43 7.67 48.43 12.24L48.43 13.15 48.62 13.12 48.82 13.11C48.89 13.11 56.06 13.03 59.22 8.66 59.59 8.15 60.19 7.84 60.82 7.84 60.95 7.84 61.08 7.85 61.22 7.88 61.98 8.04 62.59 8.63 62.76 9.38 62.77 9.4 63.56 12.54 65.84 13.13L65.84 12.23C65.84 7.66 62.13 3.95 57.56 3.95L56.71 3.95Z" fill="#C01718"/><path d="M39.64 50.81C39.02 50.81 38.51 50.3 38.51 49.68L38.51 43.27C38.51 36.4 43.89 34.26 44.51 34.03L52.31 30.98 52.31 29.15 51.98 28.96C50.15 27.88 48.78 26.19 48.12 24.18L47.98 23.75 47.53 23.72C45.23 23.56 43.43 21.64 43.43 19.34 43.43 18.01 44.03 16.76 45.06 15.92L45.31 15.72 45.31 12.24C45.31 5.96 50.42 0.85 56.7 0.85L57.56 0.85C63.84 0.85 68.95 5.96 68.95 12.24L68.95 15.73 69.19 15.93C70.22 16.77 70.81 18.01 70.81 19.34 70.81 21.61 69.03 23.54 66.76 23.72L66.32 23.76 66.18 24.18C65.52 26.19 64.15 27.89 62.32 28.96L61.99 29.15 61.99 30.99 69.57 34.03C70.2 34.26 75.58 36.41 75.58 43.27L75.58 49.67C75.58 50.3 75.07 50.81 74.45 50.81L49.93 50.81C49.31 50.81 48.8 50.3 48.8 49.68 48.8 49.06 49.31 48.55 49.93 48.55L73.34 48.55 73.34 43.27C73.34 37.74 68.89 36.18 68.84 36.16 68.82 36.15 68.8 36.15 68.78 36.14L61.64 33.28 57.95 37.11C57.74 37.33 57.45 37.45 57.15 37.46 57.15 37.46 57.15 37.46 57.15 37.46 56.84 37.46 56.56 37.35 56.34 37.14L52.45 33.35 45.31 36.15C45.29 36.16 45.27 36.16 45.26 36.17 45.07 36.24 40.76 37.84 40.76 43.28L40.76 48.56 44.2 48.56C44.82 48.56 45.33 49.07 45.33 49.69 45.33 50.31 44.82 50.82 44.2 50.82L39.64 50.82ZM54.57 32.25 57.11 34.73 59.74 32 59.74 30 59 30.08C58.64 30.12 58.31 30.14 57.97 30.14L56.34 30.14C56.01 30.14 55.67 30.12 55.31 30.08L54.56 29.99 54.56 32.25ZM59.81 12.55C56.73 15.11 52.69 15.89 50.55 16.12L49.95 16.18 49.95 21.5C49.95 25.02 52.82 27.89 56.34 27.89L57.97 27.89C61.49 27.89 64.36 25.03 64.36 21.5L64.36 15.94 63.98 15.76C62.72 15.17 61.65 14.14 60.82 12.72L60.42 12.04 59.81 12.55ZM66.62 21.84 67.68 21.06C68.23 20.66 68.55 20.01 68.55 19.34 68.55 18.79 68.34 18.27 67.97 17.87L67.82 17.71 67.61 17.67C67.57 17.66 67.53 17.65 67.48 17.64L66.61 17.37 66.61 21.84ZM46.81 17.67C46.75 17.69 46.69 17.7 46.63 17.71L46.39 17.75 46.23 17.93C45.89 18.32 45.7 18.82 45.7 19.33 45.7 20.05 46.06 20.71 46.66 21.11L47.7 21.8 47.7 17.36 46.81 17.67ZM56.71 3.11C51.68 3.11 47.58 7.21 47.58 12.24L47.58 14.31 48.47 14.02 48.51 14.01 48.52 14.01 48.6 13.99C48.62 13.99 48.65 13.98 48.68 13.98 48.69 13.98 48.71 13.98 48.73 13.97 48.75 13.97 48.79 13.97 48.83 13.97 48.91 13.97 56.49 13.92 59.92 9.17 60.13 8.88 60.47 8.7 60.84 8.7 60.92 8.7 60.99 8.71 61.07 8.72 61.5 8.81 61.85 9.15 61.95 9.58 61.96 9.62 62.86 13.32 65.74 13.99 65.76 14 65.84 14.02 65.84 14.02L66.69 14.26 66.71 13.38 66.71 12.24C66.71 7.21 62.61 3.11 57.58 3.11L56.71 3.11Z" fill="#C01718"/><path d="M103.52 29.38C102.84 29.38 102.22 29.04 101.85 28.47 95.24 18.16 85.22 10.4 73.63 6.6 72.59 6.26 72.02 5.14 72.36 4.1 72.63 3.28 73.38 2.74 74.24 2.74 74.45 2.74 74.66 2.77 74.86 2.84 87.31 6.92 98.08 15.27 105.18 26.34 105.77 27.26 105.5 28.49 104.58 29.08 104.27 29.27 103.9 29.38 103.52 29.38Z" fill="#C01718"/><path d="M103.52 28.53C103.13 28.53 102.78 28.34 102.57 28.01 95.85 17.54 85.67 9.65 73.89 5.79 73.3 5.6 72.97 4.96 73.17 4.36 73.32 3.89 73.75 3.58 74.24 3.58 74.36 3.58 74.48 3.6 74.59 3.64 86.86 7.66 97.46 15.88 104.46 26.79 104.8 27.31 104.64 28.02 104.12 28.35 103.94 28.47 103.73 28.53 103.52 28.53Z" fill="#C01718"/><path d="M10.6 29.38C10.22 29.38 9.85 29.27 9.53 29.07 8.61 28.48 8.34 27.25 8.93 26.33 16.11 15.13 27.02 6.74 39.64 2.7 39.84 2.64 40.04 2.61 40.24 2.61 41.11 2.61 41.86 3.16 42.13 3.99 42.29 4.49 42.25 5.03 42 5.5 41.76 5.97 41.35 6.32 40.84 6.48 29.09 10.23 18.94 18.04 12.26 28.47 11.9 29.04 11.27 29.38 10.6 29.38Z" fill="#C01718"/><path d="M10.6 28.53C10.38 28.53 10.17 28.47 9.99 28.35 9.46 28.01 9.31 27.31 9.65 26.79 16.72 15.75 27.47 7.49 39.9 3.51 40.01 3.47 40.13 3.46 40.25 3.46 40.74 3.46 41.18 3.78 41.33 4.25 41.42 4.54 41.4 4.84 41.26 5.11 41.12 5.38 40.89 5.58 40.6 5.67 28.66 9.48 18.34 17.42 11.55 28.01 11.34 28.34 10.98 28.53 10.6 28.53Z" fill="#C01718"/><path d="M34.05 109.26C33.76 109.26 33.49 109.2 33.22 109.08 23.26 104.5 14.86 97.19 8.93 87.95 8.34 87.03 8.61 85.8 9.53 85.21 9.85 85 10.22 84.9 10.6 84.9 11.28 84.9 11.9 85.24 12.27 85.81 17.79 94.42 25.61 101.22 34.88 105.48 35.87 105.94 36.31 107.12 35.85 108.11 35.53 108.81 34.82 109.26 34.05 109.26Z" fill="#C01718"/><path d="M34.05 108.41C33.89 108.41 33.73 108.37 33.58 108.31 23.77 103.8 15.49 96.6 9.65 87.49 9.31 86.97 9.47 86.26 9.99 85.93 10.17 85.81 10.38 85.75 10.6 85.75 10.99 85.75 11.35 85.94 11.55 86.27 17.16 95.02 25.1 101.93 34.52 106.26 35.09 106.52 35.34 107.19 35.08 107.76 34.89 108.15 34.49 108.41 34.05 108.41Z" fill="#C01718"/><path d="M80.45 109.08C79.68 109.08 78.98 108.63 78.66 107.94 78.43 107.46 78.41 106.92 78.59 106.42 78.77 105.92 79.13 105.52 79.61 105.3 88.72 101.03 96.41 94.28 101.85 85.8 102.22 85.23 102.84 84.89 103.52 84.89 103.9 84.89 104.27 85 104.59 85.2 105.51 85.79 105.78 87.02 105.19 87.94 99.34 97.06 91.08 104.3 81.29 108.89 81.02 109.02 80.74 109.08 80.45 109.08Z" fill="#C01718"/><path d="M80.45 108.23C80.01 108.23 79.61 107.97 79.42 107.58 79.29 107.31 79.28 107 79.38 106.71 79.48 106.43 79.69 106.2 79.96 106.07 89.21 101.73 97.03 94.88 102.56 86.26 102.77 85.93 103.13 85.74 103.51 85.74 103.73 85.74 103.94 85.8 104.12 85.92 104.64 86.26 104.8 86.96 104.46 87.48 98.7 96.46 90.56 103.6 80.92 108.12 80.78 108.19 80.61 108.23 80.45 108.23Z" fill="#C01718"/><path d="M12.27 82.97C11.18 82.97 10.29 82.08 10.29 80.99 10.29 79.9 11.17 79 12.27 79L34.83 79 34.83 74.57C34.83 69.73 31.06 68.32 30.89 68.26L24.2 65.58 20.91 69C20.55 69.38 20.04 69.6 19.52 69.61L19.52 69.61C18.97 69.61 18.48 69.41 18.1 69.05L14.61 65.65 7.88 68.28C7.74 68.33 3.97 69.73 3.97 74.58L3.97 79 6.56 79C7.65 79 8.54 79.89 8.54 80.98 8.54 82.07 7.65 82.96 6.56 82.96L1.98 82.96C0.89 82.97 0 82.08 0 80.98L0 74.57C0 67.11 5.89 64.78 6.56 64.53L13.8 61.7 13.8 60.94C11.87 59.78 10.42 57.98 9.7 55.86 7.02 55.61 4.93 53.34 4.93 50.64 4.93 49.08 5.62 47.62 6.81 46.62L6.81 43.55C6.81 36.8 12.3 31.31 19.05 31.31L19.9 31.31C26.65 31.31 32.14 36.8 32.14 43.55L32.14 46.64C33.33 47.64 34 49.1 34 50.65 34 53.32 31.94 55.59 29.29 55.87 28.57 57.99 27.11 59.79 25.18 60.95L25.18 61.73 32.23 64.56C32.88 64.8 38.77 67.16 38.77 74.59L38.77 80.99C38.77 82.09 37.88 82.98 36.79 82.98L12.27 82.98ZM19.43 64.82 21.23 62.95 21.23 62.25C20.91 62.28 20.61 62.3 20.31 62.3L18.68 62.3C18.38 62.3 18.07 62.28 17.76 62.25L17.76 63.19 19.43 64.82ZM13.14 52.8C13.14 55.85 15.62 58.34 18.68 58.34L20.31 58.34C23.36 58.34 25.85 55.86 25.85 52.8L25.85 47.78C24.53 47.13 23.42 46.08 22.54 44.64 19.39 47.18 15.39 47.99 13.15 48.25L13.15 52.8ZM9.17 49.85C8.99 50.08 8.89 50.36 8.89 50.65 8.89 50.95 9 51.24 9.18 51.47L9.18 49.85C9.18 49.85 9.17 49.85 9.17 49.85ZM29.81 51.38C29.96 51.17 30.05 50.91 30.05 50.64 30.05 50.37 29.97 50.12 29.81 49.9L29.81 51.38ZM19.05 35.27C14.49 35.27 10.77 38.98 10.77 43.55L10.77 44.46 11.03 44.42 11.16 44.42C11.23 44.42 18.4 44.34 21.56 39.97 21.93 39.46 22.53 39.15 23.16 39.15 23.29 39.15 23.43 39.16 23.56 39.19 24.32 39.35 24.92 39.94 25.09 40.69 25.09 40.71 25.88 43.85 28.17 44.44L28.17 43.54C28.17 38.97 24.46 35.26 19.89 35.26L19.05 35.26Z" fill="#C01718"/><path d="M12.27 82.12C11.65 82.12 11.14 81.61 11.14 80.99 11.14 80.37 11.65 79.86 12.27 79.86L35.68 79.86 35.68 74.58C35.68 69.14 31.36 67.54 31.18 67.47 31.15 67.46 31.14 67.46 31.12 67.45L23.98 64.59 20.29 68.42C20.08 68.64 19.79 68.76 19.49 68.77 19.49 68.77 19.49 68.77 19.49 68.77 19.18 68.77 18.9 68.66 18.68 68.45L14.79 64.66 7.65 67.46C7.63 67.47 7.61 67.47 7.6 67.48 7.41 67.55 3.1 69.14 3.1 74.59L3.1 79.87 6.54 79.87C7.16 79.87 7.67 80.38 7.67 81 7.67 81.62 7.16 82.13 6.54 82.13L1.98 82.13C1.36 82.13 0.85 81.62 0.85 81L0.85 74.59C0.85 67.72 6.23 65.58 6.85 65.35L14.65 62.3 14.65 60.47 14.32 60.28C12.49 59.21 11.12 57.51 10.46 55.5L10.32 55.07 9.87 55.04C7.57 54.88 5.77 52.96 5.77 50.66 5.77 49.33 6.37 48.09 7.4 47.24L7.65 47.04 7.65 43.56C7.65 37.28 12.76 32.17 19.04 32.17L19.9 32.17C26.18 32.17 31.29 37.28 31.29 43.56L31.29 47.05 31.53 47.25C32.56 48.09 33.15 49.33 33.15 50.66 33.15 52.93 31.37 54.86 29.1 55.04L28.66 55.08 28.52 55.5C27.86 57.51 26.49 59.21 24.66 60.28L24.33 60.47 24.33 62.31 31.91 65.35C32.54 65.58 37.92 67.74 37.92 74.59L37.92 80.99C37.92 81.62 37.41 82.13 36.79 82.13L36.79 82.13 12.27 82.13ZM16.91 63.55 19.45 66.03 22.08 63.3 22.08 61.3 21.33 61.39C20.97 61.43 20.64 61.45 20.3 61.45L18.67 61.45C18.34 61.45 18 61.43 17.64 61.39L16.89 61.3 16.89 63.55ZM22.15 43.85C19.07 46.41 15.03 47.19 12.89 47.42L12.29 47.48 12.29 52.8C12.29 56.32 15.16 59.19 18.68 59.19L20.31 59.19C23.83 59.19 26.7 56.33 26.7 52.8L26.7 47.24 26.32 47.06C25.06 46.46 23.99 45.44 23.16 44.02L22.76 43.34 22.15 43.85ZM28.96 53.15 30.02 52.37C30.57 51.97 30.89 51.32 30.89 50.65 30.89 50.1 30.68 49.58 30.31 49.18L30.16 49.02 29.95 48.98C29.91 48.97 29.87 48.96 29.83 48.95L28.96 48.68 28.96 53.15ZM9.15 48.97C9.09 48.99 9.03 49 8.96 49.02L8.72 49.06 8.56 49.24C8.22 49.63 8.03 50.13 8.03 50.64 8.03 51.36 8.39 52.02 8.99 52.42L10.03 53.11 10.03 48.67 9.15 48.97ZM19.05 34.42C14.02 34.42 9.92 38.52 9.92 43.55L9.92 45.62 10.81 45.33 10.83 45.32 10.93 45.29C10.95 45.29 10.98 45.28 11.01 45.28 11.02 45.28 11.04 45.28 11.06 45.27 11.08 45.27 11.12 45.27 11.16 45.27 11.24 45.27 18.82 45.22 22.25 40.47 22.46 40.18 22.8 40 23.17 40 23.25 40 23.32 40.01 23.4 40.02 23.83 40.11 24.18 40.45 24.28 40.88 24.32 41.04 25.22 44.63 28.08 45.29L28.18 45.32 29.03 45.56 29.05 44.68 29.05 43.54C29.05 38.51 24.95 34.41 19.92 34.41L19.05 34.41Z" fill="#C01718"/><path d="M87.75 82.97C86.66 82.97 85.77 82.08 85.77 80.99 85.77 79.9 86.66 79.01 87.75 79.01L110.31 79.01 110.31 74.58C110.31 69.73 106.54 68.33 106.38 68.27L99.68 65.59 96.39 69.01C96.03 69.39 95.52 69.61 94.99 69.62 94.45 69.62 93.95 69.42 93.58 69.06L90.08 65.66 83.45 68.26C83.21 68.35 79.44 69.73 79.44 74.59L79.44 79 82.03 79C83.12 79 84.01 79.89 84.01 80.98 84.01 82.07 83.12 82.96 82.03 82.96L77.46 82.96C76.37 82.96 75.48 82.07 75.48 80.98L75.48 74.57C75.48 67.12 81.37 64.78 82.04 64.53L89.28 61.7 89.28 60.94C87.35 59.78 85.9 57.98 85.18 55.86 82.5 55.61 80.41 53.34 80.41 50.64 80.41 49.08 81.09 47.62 82.29 46.62L82.29 43.55C82.29 36.8 87.78 31.31 94.53 31.31L95.39 31.31C102.14 31.31 107.63 36.8 107.63 43.55L107.63 46.64C108.82 47.64 109.49 49.1 109.49 50.65 109.49 53.32 107.43 55.59 104.78 55.87 104.06 57.99 102.6 59.79 100.67 60.95L100.67 61.73 107.72 64.56C108.37 64.8 114.26 67.16 114.26 74.59L114.26 80.99C114.26 82.09 113.37 82.98 112.28 82.98L87.75 82.98ZM94.91 64.82 96.71 62.95 96.71 62.25C96.4 62.28 96.09 62.3 95.79 62.3L94.16 62.3C93.86 62.3 93.55 62.28 93.24 62.25L93.24 63.19 94.91 64.82ZM88.63 52.8C88.63 55.85 91.11 58.34 94.17 58.34L95.8 58.34C98.85 58.34 101.34 55.86 101.34 52.8L101.34 47.78C100.02 47.13 98.91 46.08 98.03 44.64 94.89 47.17 90.88 47.99 88.64 48.25L88.64 52.8ZM84.65 49.85C84.47 50.08 84.37 50.36 84.37 50.65 84.37 50.95 84.48 51.24 84.66 51.47L84.66 49.85C84.66 49.85 84.65 49.85 84.65 49.85ZM105.29 51.38C105.44 51.17 105.53 50.91 105.53 50.64 105.53 50.37 105.45 50.12 105.29 49.9L105.29 51.38ZM94.53 35.27C89.96 35.27 86.25 38.98 86.25 43.55L86.25 44.46 86.51 44.42 86.64 44.42C86.71 44.42 93.88 44.34 97.04 39.97 97.41 39.46 98.01 39.15 98.64 39.15 98.77 39.15 98.91 39.16 99.04 39.19 99.8 39.35 100.4 39.94 100.57 40.69 100.57 40.71 101.37 43.85 103.65 44.44L103.65 43.54C103.65 38.97 99.94 35.26 95.37 35.26L94.53 35.26Z" fill="#C01718"/><path d="M87.75 82.12C87.13 82.12 86.62 81.61 86.62 80.99 86.62 80.37 87.13 79.86 87.75 79.86L111.16 79.86 111.16 74.58C111.16 69.14 106.84 67.54 106.66 67.47 106.63 67.46 106.62 67.46 106.6 67.45L99.46 64.59 95.77 68.42C95.56 68.64 95.27 68.76 94.97 68.77 94.97 68.77 94.97 68.77 94.97 68.77 94.66 68.77 94.38 68.66 94.16 68.45L90.27 64.66 83.13 67.46C83.11 67.47 83.09 67.47 83.08 67.48 82.89 67.55 78.58 69.14 78.58 74.59L78.58 79.87 82.02 79.87C82.64 79.87 83.15 80.38 83.15 81 83.15 81.62 82.64 82.13 82.02 82.13L77.45 82.13C76.83 82.13 76.32 81.62 76.32 81L76.32 74.59C76.32 67.72 81.7 65.58 82.32 65.35L90.12 62.3 90.12 60.47 89.79 60.28C87.96 59.21 86.59 57.51 85.93 55.5L85.79 55.07 85.34 55.04C83.04 54.88 81.24 52.96 81.24 50.66 81.24 49.33 81.84 48.09 82.87 47.24L83.12 47.04 83.12 43.56C83.12 37.28 88.23 32.17 94.51 32.17L95.37 32.17C101.65 32.17 106.76 37.28 106.76 43.56L106.76 47.05 107 47.25C108.03 48.09 108.62 49.33 108.62 50.66 108.62 52.93 106.84 54.86 104.57 55.04L104.13 55.08 103.99 55.5C103.33 57.51 101.96 59.21 100.13 60.28L99.8 60.47 99.8 62.31 107.38 65.35C108.01 65.58 113.39 67.74 113.39 74.59L113.39 80.99C113.39 81.62 112.88 82.13 112.26 82.13L87.75 82.13ZM92.39 63.55 94.93 66.03 97.56 63.3 97.56 61.3 96.81 61.39C96.46 61.43 96.11 61.45 95.78 61.45L94.15 61.45C93.82 61.45 93.48 61.43 93.12 61.39L92.37 61.3 92.37 63.55ZM97.64 43.85C94.57 46.41 90.52 47.18 88.38 47.42L87.78 47.48 87.78 52.8C87.78 56.32 90.65 59.19 94.17 59.19L95.8 59.19C99.32 59.19 102.19 56.33 102.19 52.8L102.19 47.24 101.81 47.06C100.55 46.46 99.48 45.44 98.65 44.02L98.25 43.34 97.64 43.85ZM104.44 53.15 105.5 52.37C106.05 51.97 106.37 51.32 106.37 50.65 106.37 50.1 106.16 49.58 105.79 49.18L105.64 49.02 105.43 48.98C105.39 48.97 105.35 48.96 105.31 48.95L104.44 48.68 104.44 53.15ZM84.63 48.97C84.57 48.99 84.51 49 84.44 49.01L84.2 49.05 84.04 49.23C83.7 49.62 83.51 50.12 83.51 50.63 83.51 51.35 83.87 52.01 84.47 52.41L85.51 53.1 85.51 48.66 84.63 48.97ZM94.53 34.42C89.5 34.42 85.4 38.52 85.4 43.55L85.4 45.61 86.29 45.32 86.31 45.31 86.41 45.28C86.43 45.28 86.46 45.27 86.49 45.27 86.5 45.27 86.52 45.27 86.54 45.26 86.56 45.26 86.6 45.26 86.64 45.26 86.72 45.26 94.3 45.21 97.73 40.46 97.94 40.17 98.28 39.99 98.65 39.99 98.73 39.99 98.8 40 98.88 40.01 99.31 40.1 99.66 40.44 99.76 40.87 99.77 40.91 100.67 44.62 103.56 45.28L103.66 45.31 104.53 45.59 104.53 44.68 104.53 43.54C104.53 38.51 100.43 34.41 95.4 34.41L94.53 34.41Z" fill="#C01718"/><path d="M49.93 114.28C48.84 114.28 47.95 113.39 47.95 112.3 47.95 111.21 48.84 110.32 49.93 110.32L72.49 110.32 72.49 105.89C72.49 101.04 68.72 99.64 68.56 99.58L61.86 96.9 58.57 100.32C58.21 100.7 57.7 100.92 57.17 100.93 56.63 100.93 56.13 100.73 55.76 100.37L52.27 96.97 45.54 99.6C45.4 99.65 41.63 101.04 41.63 105.9L41.63 110.33 44.22 110.33C45.31 110.33 46.2 111.22 46.2 112.31 46.2 113.4 45.31 114.29 44.22 114.29L39.65 114.29C38.56 114.29 37.67 113.4 37.67 112.31L37.67 105.9C37.67 98.44 43.56 96.11 44.23 95.86L51.47 93.03 51.47 92.27C49.54 91.11 48.09 89.31 47.37 87.19 44.69 86.94 42.6 84.67 42.6 81.97 42.6 80.41 43.29 78.95 44.48 77.95L44.48 74.88C44.48 68.13 49.97 62.64 56.72 62.64L57.57 62.64C64.32 62.64 69.81 68.13 69.81 74.88L69.81 77.97C71 78.97 71.67 80.43 71.67 81.98 71.67 84.65 69.61 86.92 66.96 87.2 66.24 89.32 64.78 91.12 62.85 92.28L62.85 93.06 69.9 95.89C70.55 96.12 76.44 98.49 76.44 105.92L76.44 112.32C76.44 113.42 75.55 114.31 74.46 114.31L49.93 114.31ZM57.09 96.13 58.89 94.26 58.89 93.56C58.57 93.59 58.27 93.61 57.97 93.61L56.34 93.61C56.04 93.61 55.73 93.59 55.42 93.56L55.42 94.5 57.09 96.13ZM50.8 84.11C50.8 87.16 53.28 89.65 56.34 89.65L57.97 89.65C61.02 89.65 63.51 87.17 63.51 84.11L63.51 79.1C62.19 78.45 61.08 77.4 60.2 75.96 57.05 78.49 53.05 79.31 50.81 79.57L50.81 84.11ZM46.83 81.16C46.65 81.39 46.55 81.67 46.55 81.96 46.55 82.26 46.66 82.55 46.84 82.78L46.84 81.16C46.84 81.16 46.83 81.16 46.83 81.16ZM67.47 82.69C67.62 82.48 67.71 82.22 67.71 81.95 67.71 81.68 67.63 81.43 67.47 81.21L67.47 82.69ZM56.71 66.58C52.15 66.58 48.43 70.29 48.43 74.86L48.43 75.77 48.56 75.75C48.69 75.73 48.75 75.73 48.82 75.73 48.89 75.73 56.06 75.65 59.22 71.28 59.59 70.77 60.19 70.46 60.82 70.46 60.95 70.46 61.09 70.47 61.22 70.5 61.98 70.65 62.58 71.24 62.75 72 62.76 72.03 63.54 75.16 65.83 75.75L65.83 74.85C65.83 70.28 62.12 66.57 57.55 66.57L56.71 66.57Z" fill="#C01718"/><path d="M39.64 113.43C39.02 113.43 38.51 112.92 38.51 112.3L38.51 105.89C38.51 99.02 43.89 96.88 44.51 96.65L52.31 93.6 52.31 91.77 51.98 91.58C50.15 90.5 48.78 88.81 48.12 86.8L47.98 86.37 47.53 86.34C45.23 86.18 43.43 84.26 43.43 81.96 43.43 80.63 44.03 79.39 45.06 78.54L45.31 78.34 45.31 74.86C45.31 68.58 50.42 63.47 56.7 63.47L57.56 63.47C63.84 63.47 68.95 68.58 68.95 74.86L68.95 78.35 69.19 78.55C70.22 79.39 70.81 80.63 70.81 81.96 70.81 84.23 69.03 86.16 66.76 86.34L66.32 86.38 66.18 86.8C65.52 88.81 64.15 90.51 62.32 91.58L61.99 91.77 61.99 93.61 69.57 96.65C70.2 96.88 75.58 99.03 75.58 105.89L75.58 112.29C75.58 112.92 75.07 113.43 74.45 113.43L49.93 113.43C49.31 113.43 48.8 112.92 48.8 112.3 48.8 111.68 49.31 111.17 49.93 111.17L73.34 111.17 73.34 105.89C73.34 100.45 69.02 98.85 68.84 98.78 68.81 98.77 68.8 98.77 68.78 98.76L61.64 95.9 57.95 99.73C57.74 99.95 57.45 100.07 57.15 100.08 57.15 100.08 57.15 100.08 57.15 100.08 56.84 100.08 56.56 99.97 56.34 99.76L52.45 95.97 45.31 98.77C45.29 98.78 45.27 98.78 45.26 98.79 45.07 98.86 40.76 100.45 40.76 105.9L40.76 111.18 44.2 111.18C44.82 111.18 45.33 111.69 45.33 112.31 45.33 112.93 44.82 113.44 44.2 113.44L39.64 113.44ZM54.57 94.86 57.11 97.34 59.74 94.61 59.74 92.62 59 92.7C58.64 92.74 58.31 92.76 57.97 92.76L56.34 92.76C56.01 92.76 55.67 92.74 55.31 92.7L54.56 92.61 54.56 94.86ZM59.81 75.17C56.74 77.73 52.69 78.51 50.55 78.74L49.95 78.8 49.95 84.12C49.95 87.64 52.82 90.51 56.34 90.51L57.97 90.51C61.49 90.51 64.36 87.65 64.36 84.12L64.36 78.56 63.98 78.38C62.72 77.79 61.65 76.76 60.82 75.34L60.42 74.66 59.81 75.17ZM66.62 84.46 67.68 83.68C68.23 83.28 68.55 82.63 68.55 81.96 68.55 81.41 68.34 80.89 67.97 80.49L67.82 80.33 67.61 80.29C67.57 80.28 67.53 80.27 67.49 80.26L66.62 79.99 66.62 84.46ZM46.81 80.28C46.75 80.3 46.69 80.31 46.62 80.32L46.38 80.36 46.22 80.54C45.88 80.93 45.69 81.43 45.69 81.94 45.69 82.66 46.05 83.32 46.65 83.72L47.69 84.41 47.69 79.97 46.81 80.28ZM56.71 65.73C51.68 65.73 47.58 69.83 47.58 74.86L47.58 76.92 48.47 76.64 48.49 76.63 48.59 76.61C48.62 76.6 48.64 76.6 48.66 76.6L48.72 76.59C48.75 76.59 48.79 76.58 48.83 76.58 48.91 76.58 56.49 76.53 59.92 71.78 60.13 71.49 60.47 71.31 60.84 71.31 60.92 71.31 60.99 71.32 61.07 71.33 61.5 71.42 61.85 71.76 61.95 72.19 61.96 72.23 62.85 75.94 65.76 76.6L65.79 76.61 65.83 76.62 66.7 76.89 66.69 76 66.69 74.86C66.69 69.83 62.59 65.73 57.56 65.73L56.71 65.73Z" fill="#C01718"/></g></svg>